<svg width="142" height="25" viewBox="0 0 142 25" fill="none" xmlns="http://www.w3.org/2000/svg">
<path d="M21.08 24H15.608L6.456 10.144V24H0.984V1.536H6.456L15.608 15.456V1.536H21.08V24ZM24.2585 15.04C24.2585 13.2053 24.5998 11.5947 25.2825 10.208C25.9865 8.82133 26.9358 7.75467 28.1305 7.008C29.3252 6.26133 30.6585 5.888 32.1305 5.888C33.3892 5.888 34.4878 6.144 35.4265 6.656C36.3865 7.168 37.1225 7.84 37.6345 8.672V6.144H43.1065V24H37.6345V21.472C37.1012 22.304 36.3545 22.976 35.3945 23.488C34.4558 24 33.3572 24.256 32.0985 24.256C30.6478 24.256 29.3252 23.8827 28.1305 23.136C26.9358 22.368 25.9865 21.2907 25.2825 19.904C24.5998 18.496 24.2585 16.8747 24.2585 15.04ZM37.6345 15.072C37.6345 13.7067 37.2505 12.6293 36.4825 11.84C35.7358 11.0507 34.8185 10.656 33.7305 10.656C32.6425 10.656 31.7145 11.0507 30.9465 11.84C30.1998 12.608 29.8265 13.6747 29.8265 15.04C29.8265 16.4053 30.1998 17.4933 30.9465 18.304C31.7145 19.0933 32.6425 19.488 33.7305 19.488C34.8185 19.488 35.7358 19.0933 36.4825 18.304C37.2505 17.5147 37.6345 16.4373 37.6345 15.072ZM58.2772 24L52.8372 16.512V24H47.3652V0.32H52.8372V13.408L58.2452 6.144H64.9972L57.5732 15.104L65.0612 24H58.2772ZM66.3585 15.04C66.3585 13.2053 66.6998 11.5947 67.3825 10.208C68.0865 8.82133 69.0358 7.75467 70.2305 7.008C71.4252 6.26133 72.7585 5.888 74.2305 5.888C75.4892 5.888 76.5878 6.144 77.5265 6.656C78.4865 7.168 79.2225 7.84 79.7345 8.672V6.144H85.2065V24H79.7345V21.472C79.2012 22.304 78.4545 22.976 77.4945 23.488C76.5558 24 75.4572 24.256 74.1985 24.256C72.7478 24.256 71.4252 23.8827 70.2305 23.136C69.0358 22.368 68.0865 21.2907 67.3825 19.904C66.6998 18.496 66.3585 16.8747 66.3585 15.04ZM79.7345 15.072C79.7345 13.7067 79.3505 12.6293 78.5825 11.84C77.8358 11.0507 76.9185 10.656 75.8305 10.656C74.7425 10.656 73.8145 11.0507 73.0465 11.84C72.2998 12.608 71.9265 13.6747 71.9265 15.04C71.9265 16.4053 72.2998 17.4933 73.0465 18.304C73.8145 19.0933 74.7425 19.488 75.8305 19.488C76.9185 19.488 77.8358 19.0933 78.5825 18.304C79.3505 17.5147 79.7345 16.4373 79.7345 15.072ZM112.249 5.952C114.468 5.952 116.228 6.624 117.529 7.968C118.852 9.312 119.513 11.1787 119.513 13.568V24H114.073V14.304C114.073 13.152 113.764 12.2667 113.145 11.648C112.548 11.008 111.716 10.688 110.649 10.688C109.583 10.688 108.74 11.008 108.121 11.648C107.524 12.2667 107.225 13.152 107.225 14.304V24H101.785V14.304C101.785 13.152 101.476 12.2667 100.857 11.648C100.26 11.008 99.4279 10.688 98.3612 10.688C97.2946 10.688 96.4519 11.008 95.8332 11.648C95.2359 12.2667 94.9372 13.152 94.9372 14.304V24H89.4652V6.144H94.9372V8.384C95.4919 7.63733 96.2172 7.05067 97.1132 6.624C98.0092 6.176 99.0226 5.952 100.153 5.952C101.497 5.952 102.692 6.24 103.737 6.816C104.804 7.392 105.636 8.21333 106.233 9.28C106.852 8.29867 107.695 7.49867 108.761 6.88C109.828 6.26133 110.991 5.952 112.249 5.952ZM131.768 24.256C130.019 24.256 128.44 23.8827 127.032 23.136C125.646 22.3893 124.547 21.3227 123.736 19.936C122.947 18.5493 122.552 16.928 122.552 15.072C122.552 13.2373 122.958 11.6267 123.768 10.24C124.579 8.832 125.688 7.75467 127.096 7.008C128.504 6.26133 130.083 5.888 131.832 5.888C133.582 5.888 135.16 6.26133 136.568 7.008C137.976 7.75467 139.086 8.832 139.896 10.24C140.707 11.6267 141.112 13.2373 141.112 15.072C141.112 16.9067 140.696 18.528 139.864 19.936C139.054 21.3227 137.934 22.3893 136.504 23.136C135.096 23.8827 133.518 24.256 131.768 24.256ZM131.768 19.52C132.814 19.52 133.699 19.136 134.424 18.368C135.171 17.6 135.544 16.5013 135.544 15.072C135.544 13.6427 135.182 12.544 134.456 11.776C133.752 11.008 132.878 10.624 131.832 10.624C130.766 10.624 129.88 11.008 129.176 11.776C128.472 12.5227 128.12 13.6213 128.12 15.072C128.12 16.5013 128.462 17.6 129.144 18.368C129.848 19.136 130.723 19.52 131.768 19.52Z" fill="black"/>
</svg>
