<svg width="21" height="21" viewBox="0 0 21 21" fill="none" xmlns="http://www.w3.org/2000/svg">
<path d="M14 0C14.5523 0 15 0.447715 15 1V2H20V8H17.981L20.7271 15.5448C20.9033 15.9958 21 16.4866 21 17C21 19.2091 19.2091 21 17 21C15.1362 21 13.5701 19.7252 13.126 18H8.87398C8.42994 19.7252 6.86384 21 5 21C3.05551 21 1.43508 19.6125 1.07474 17.7736C0.435964 17.4396 0 16.7707 0 16V6C0 5.44772 0.447715 5 1 5H8C8.55228 5 9 5.44772 9 6V11C9 11.5523 9.44772 12 10 12H12C12.5523 12 13 11.5523 13 11V2H10V0H14ZM17 15C15.8954 15 15 15.8954 15 17C15 18.1046 15.8954 19 17 19C18.1046 19 19 18.1046 19 17C19 16.7597 18.9576 16.5292 18.8799 16.3158L18.8635 16.2724C18.5725 15.5276 17.8479 15 17 15ZM5 15C3.89543 15 3 15.8954 3 17C3 18.1046 3.89543 19 5 19C6.10457 19 7 18.1046 7 17C7 15.8954 6.10457 15 5 15ZM7 7H2V9H7V7ZM18 4H15V6H18V4Z" fill="#F8FAFC"/>
</svg>
