<svg width="142" height="25" fill="none" xmlns="http://www.w3.org/2000/svg"><path d="M21.08 24h-5.472L6.456 10.144V24H.984V1.536h5.472l9.152 13.92V1.536h5.472V24Zm3.179-8.96c0-1.835.34-3.445 1.023-4.832.704-1.387 1.654-2.453 2.849-3.2 1.194-.747 2.527-1.12 4-1.12 1.258 0 2.357.256 3.295.768.96.512 1.697 1.184 2.209 2.016V6.144h5.471V24h-5.471v-2.528c-.534.832-1.28 1.504-2.24 2.016-.94.512-2.038.768-3.297.768-1.45 0-2.773-.373-3.967-1.12-1.195-.768-2.145-1.845-2.849-3.232-.682-1.408-1.023-3.03-1.023-4.864Zm13.376.032c0-1.365-.384-2.443-1.152-3.232-.747-.79-1.664-1.184-2.752-1.184-1.089 0-2.017.395-2.785 1.184-.746.768-1.12 1.835-1.12 3.2 0 1.365.374 2.453 1.12 3.264.768.79 1.696 1.184 2.784 1.184 1.089 0 2.006-.395 2.753-1.184.768-.79 1.152-1.867 1.152-3.232ZM58.276 24l-5.44-7.488V24h-5.472V.32h5.472v13.088l5.408-7.264h6.752l-7.424 8.96L65.061 24h-6.784Zm8.082-8.96c0-1.835.34-3.445 1.023-4.832.704-1.387 1.654-2.453 2.849-3.2 1.194-.747 2.528-1.12 4-1.12 1.258 0 2.357.256 3.296.768.96.512 1.695 1.184 2.207 2.016V6.144h5.473V24h-5.472v-2.528c-.534.832-1.28 1.504-2.24 2.016-.94.512-2.038.768-3.297.768-1.45 0-2.773-.373-3.967-1.12-1.195-.768-2.144-1.845-2.849-3.232-.682-1.408-1.023-3.03-1.023-4.864Zm13.376.032c0-1.365-.385-2.443-1.153-3.232-.746-.79-1.663-1.184-2.751-1.184-1.088 0-2.017.395-2.785 1.184-.746.768-1.12 1.835-1.12 3.2 0 1.365.374 2.453 1.12 3.264.768.79 1.697 1.184 2.784 1.184 1.088 0 2.006-.395 2.752-1.184.769-.79 1.153-1.867 1.153-3.232Zm32.514-9.12c2.219 0 3.979.672 5.28 2.016 1.323 1.344 1.984 3.21 1.984 5.6V24h-5.44v-9.696c0-1.152-.309-2.037-.928-2.656-.597-.64-1.429-.96-2.496-.96-1.066 0-1.909.32-2.528.96-.597.619-.896 1.504-.896 2.656V24h-5.44v-9.696c0-1.152-.309-2.037-.928-2.656-.597-.64-1.43-.96-2.496-.96s-1.91.32-2.528.96c-.597.619-.896 1.504-.896 2.656V24h-5.472V6.144h5.472v2.24c.555-.747 1.28-1.333 2.176-1.76.896-.448 1.91-.672 3.04-.672 1.344 0 2.539.288 3.584.864a6.163 6.163 0 0 1 2.496 2.464c.619-.981 1.462-1.781 2.528-2.4a6.833 6.833 0 0 1 3.488-.928Zm19.519 18.304c-1.749 0-3.328-.373-4.736-1.12a8.343 8.343 0 0 1-3.296-3.2c-.789-1.387-1.184-3.008-1.184-4.864 0-1.835.406-3.445 1.216-4.832.811-1.408 1.92-2.485 3.328-3.232 1.408-.747 2.987-1.12 4.736-1.12 1.75 0 3.328.373 4.736 1.12a8.218 8.218 0 0 1 3.328 3.232c.811 1.387 1.216 2.997 1.216 4.832s-.416 3.456-1.248 4.864a8.221 8.221 0 0 1-3.36 3.2c-1.408.747-2.986 1.12-4.736 1.12Zm0-4.736c1.046 0 1.931-.384 2.656-1.152.747-.768 1.12-1.867 1.12-3.296 0-1.43-.362-2.528-1.088-3.296-.704-.768-1.578-1.152-2.624-1.152-1.066 0-1.952.384-2.656 1.152-.704.747-1.056 1.845-1.056 3.296 0 1.43.342 2.528 1.024 3.296.704.768 1.579 1.152 2.624 1.152Z" fill="#F8FAFC"/></svg>