<svg width="12" height="12" fill="none" xmlns="http://www.w3.org/2000/svg"><path d="M9.452 7.353a.642.642 0 0 0-.186.566l.519 2.87a.63.63 0 0 1-.263.63.642.642 0 0 1-.682.047l-2.584-1.348a.658.658 0 0 0-.291-.076h-.159a.47.47 0 0 0-.157.053l-2.584 1.353a.682.682 0 0 1-.414.064.648.648 0 0 1-.52-.74l.52-2.87a.653.653 0 0 0-.186-.572L.358 5.288a.63.63 0 0 1-.157-.659.655.655 0 0 1 .519-.437l2.899-.42a.649.649 0 0 0 .513-.356L5.41.796A.607.607 0 0 1 5.526.64L5.58.6a.392.392 0 0 1 .094-.076L5.737.5l.1-.04h.245c.22.022.413.153.514.35L7.89 3.417a.65.65 0 0 0 .484.355l2.9.42c.244.036.45.205.53.438.077.234.01.49-.169.66L9.452 7.352Z" fill="#FFC107"/></svg>